# xmcd CD database file
#
# Track frame offsets:
#	150
#	30642
#	53415
#	94811
#	132926
#	155536
#	180976
#	192379
#	222307
#
# Disc length: 3201 seconds
#
# Revision: 0
# Processed by: cddbd v1.5.1PL2 Copyright (c) Steve Scherf et al.
# Submitted via: CDex 1.51
#
DISCID=730c7f09
DTITLE=Marc Egea - Melanocetus
DYEAR=2005
DGENRE=Jazz
TTITLE0=Possible
TTITLE1=Bressolada
TTITLE2=Melanocetus
TTITLE3=Sichler: muntanya de pedra
TTITLE4=Ginkgo biloba
TTITLE5=Fagocitandum
TTITLE6=Nunc stans
TTITLE7=Homo, humus, humili
TTITLE8=Nova
EXTD=YEAR: 2005
EXTT0=
EXTT1=
EXTT2=
EXTT3=
EXTT4=
EXTT5=
EXTT6=
EXTT7=
EXTT8=
PLAYORDER=
